# xmcd CD database file
#
# Track frame offsets:
#	150
#	15426
#	26722
#	45225
#	65391
#	90489
#	105660
#	127515
#	149844
#	186338
#	205436
#	231795
#	253206
#	273029
#	283247
#
# Disc length: 4039 seconds
#
# Revision: 1
# Processed by: cddbd v1.5.2PL0 Copyright (c) Steve Scherf et al.
# Submitted via: CDex 1.51
#
DISCID=d20fc50f
DTITLE=Johnny Pacheco - El Maestro, Disc 2
DYEAR=2006
DGENRE=Salsa
TTITLE0=Soy Hijo del Siboney
TTITLE1=Maria Cervantes
TTITLE2=La Esencia del Guaguancó
TTITLE3=Dulce Con Dulce
TTITLE4=Viralo Al Reves
TTITLE5=Ponle Punto
TTITLE6=Quimbara (w/Celia Cruz)
TTITLE7=Guaguanco Pa'l Que Sabe
TTITLE8=Solo Estoy
TTITLE9=Juliana  (w/Daniel Santos)
TTITLE10=La Dicha Mia (w/Celia Cruz)
TTITLE11=Juaniquita
TTITLE12=El Paso de Encarnacion (w/Rolando Laserie)
TTITLE13=La Palabra Fin (w/Roland Laserie)
TTITLE14=Los Compadres Seguirán
EXTD=YEAR: 2006
EXTT0=
EXTT1=
EXTT2=
EXTT3=
EXTT4=
EXTT5=
EXTT6=
EXTT7=
EXTT8=
EXTT9=
EXTT10=
EXTT11=
EXTT12=
EXTT13=
EXTT14=
PLAYORDER=
